# xmcd
#
# Track frame offsets:
#	150
#	15437
#	34881
#	57824
#	78125
#	95900
#	115853
#	131640
#	159107
#	177626
#	200768
#	221699
#	250171
#	271613
#
# Disc length: 4215
#
# Revision: 1
# Processed by: cddbd v1.5.1PL0 Copyright (c) Steve Scherf et al.
# Submitted via: dBpowerAMP V4.0
# Normalized: r0:TRMNUM
#
DISCID=bb10750e
DTITLE=Case and Davidson - Barely Alive Volume 1
DYEAR=1900
DGENRE=Folk-Rock
TTITLE0=Bye, Bye
TTITLE1=Real Fine Love
TTITLE2=Johnny B.Goode
TTITLE3=Shakey Ground
TTITLE4=I Ain't ever Satisfied
TTITLE5=Fair Game
TTITLE6=If I Had a Boat
TTITLE7=The Weight
TTITLE8=Sweet Home Chicago
TTITLE9=This Ole Cowboy
TTITLE10=Yellow Moon
TTITLE11=Gotta wear Shades
TTITLE12=Dixie Chicken
TTITLE13=Jam!!!
EXTD=http://CaseAndDavidson.com/Pages/Merchandising.html
EXTT0=
EXTT1=
EXTT2=
EXTT3=
EXTT4=
EXTT5=
EXTT6=
EXTT7=
EXTT8=
EXTT9=
EXTT10=
EXTT11=
EXTT12=
EXTT13=
PLAYORDER=
